<svg xmlns="http://www.w3.org/2000/svg" width="880" height="360" viewBox="0 0 880 360" font-family="system-ui,sans-serif">
<rect width="880" height="360" fill="#0d1117"/>
<text x="440" y="22" fill="#e6edf3" font-size="15" font-weight="600" text-anchor="middle">Tokens per month by model (top 5)</text>
<line x1="64" y1="290.0" x2="760" y2="290.0" stroke="#21262d"/>
<text x="58" y="294.0" fill="#8b949e" font-size="10" text-anchor="end">0</text>
<line x1="64" y1="227.5" x2="760" y2="227.5" stroke="#21262d"/>
<text x="58" y="231.5" fill="#8b949e" font-size="10" text-anchor="end">21.0B</text>
<line x1="64" y1="165.0" x2="760" y2="165.0" stroke="#21262d"/>
<text x="58" y="169.0" fill="#8b949e" font-size="10" text-anchor="end">42.0B</text>
<line x1="64" y1="102.5" x2="760" y2="102.5" stroke="#21262d"/>
<text x="58" y="106.5" fill="#8b949e" font-size="10" text-anchor="end">63.1B</text>
<line x1="64" y1="40.0" x2="760" y2="40.0" stroke="#21262d"/>
<text x="58" y="44.0" fill="#8b949e" font-size="10" text-anchor="end">84.1B</text>
<polyline fill="none" stroke="#4f9ecf" stroke-width="2" points="64.0,290.0 133.6,290.0 203.2,290.0 272.8,290.0 342.4,290.0 412.0,290.0 481.6,40.0 551.2,105.0 620.8,290.0 690.4,290.0 760.0,290.0"/>
<text x="766" y="54" fill="#4f9ecf" font-size="11">gpt-5.4</text>
<polyline fill="none" stroke="#e4754f" stroke-width="2" points="64.0,290.0 133.6,290.0 203.2,290.0 272.8,290.0 342.4,290.0 412.0,290.0 481.6,290.0 551.2,288.2 620.8,224.3 690.4,218.1 760.0,283.9"/>
<text x="766" y="70" fill="#e4754f" font-size="11">gpt-5.5</text>
<polyline fill="none" stroke="#6cc24a" stroke-width="2" points="64.0,285.7 133.6,258.2 203.2,258.9 272.8,284.5 342.4,278.3 412.0,290.0 481.6,290.0 551.2,290.0 620.8,290.0 690.4,290.0 760.0,290.0"/>
<text x="766" y="86" fill="#6cc24a" font-size="11">gpt-5-codex</text>
<polyline fill="none" stroke="#b072d6" stroke-width="2" points="64.0,290.0 133.6,290.0 203.2,290.0 272.8,240.0 342.4,290.0 412.0,290.0 481.6,290.0 551.2,290.0 620.8,290.0 690.4,290.0 760.0,290.0"/>
<text x="766" y="102" fill="#b072d6" font-size="11">gpt-5.2</text>
<polyline fill="none" stroke="#e0b341" stroke-width="2" points="64.0,290.0 133.6,290.0 203.2,290.0 272.8,272.9 342.4,273.0 412.0,290.0 481.6,290.0 551.2,290.0 620.8,290.0 690.4,290.0 760.0,290.0"/>
<text x="766" y="118" fill="#e0b341" font-size="11">gpt-5.2-codex</text>
<text x="64.0" y="304" fill="#8b949e" font-size="9" text-anchor="end" transform="rotate(-55 64.0 304)">2025-09</text>
<text x="133.6" y="304" fill="#8b949e" font-size="9" text-anchor="end" transform="rotate(-55 133.6 304)">2025-10</text>
<text x="203.2" y="304" fill="#8b949e" font-size="9" text-anchor="end" transform="rotate(-55 203.2 304)">2025-11</text>
<text x="272.8" y="304" fill="#8b949e" font-size="9" text-anchor="end" transform="rotate(-55 272.8 304)">2025-12</text>
<text x="342.4" y="304" fill="#8b949e" font-size="9" text-anchor="end" transform="rotate(-55 342.4 304)">2026-01</text>
<text x="412.0" y="304" fill="#8b949e" font-size="9" text-anchor="end" transform="rotate(-55 412.0 304)">2026-02</text>
<text x="481.6" y="304" fill="#8b949e" font-size="9" text-anchor="end" transform="rotate(-55 481.6 304)">2026-03</text>
<text x="551.2" y="304" fill="#8b949e" font-size="9" text-anchor="end" transform="rotate(-55 551.2 304)">2026-04</text>
<text x="620.8" y="304" fill="#8b949e" font-size="9" text-anchor="end" transform="rotate(-55 620.8 304)">2026-05</text>
<text x="690.4" y="304" fill="#8b949e" font-size="9" text-anchor="end" transform="rotate(-55 690.4 304)">2026-06</text>
<text x="760.0" y="304" fill="#8b949e" font-size="9" text-anchor="end" transform="rotate(-55 760.0 304)">2026-07</text>
</svg>